<svg width="42" height="50" viewBox="0 0 42 50" fill="none" xmlns="http://www.w3.org/2000/svg">
<path fill-rule="evenodd" clip-rule="evenodd" d="M6.64471 6.74499C10.4519 2.9378 15.6155 0.79895 20.9997 0.79895C26.3839 0.79895 31.5475 2.9378 35.3547 6.74499C39.1619 10.5522 41.3007 15.7158 41.3007 21.1C41.3007 26.4842 39.1619 31.6478 35.3547 35.455L20.9997 49.81L6.64471 35.455C4.75946 33.5699 3.26399 31.332 2.24369 28.8689C1.22339 26.4059 0.698242 23.766 0.698242 21.1C0.698242 18.434 1.22339 15.7941 2.24369 13.331C3.26399 10.868 4.75946 8.63004 6.64471 6.74499ZM20.9997 26.9C22.538 26.9 24.0132 26.2889 25.1009 25.2012C26.1886 24.1135 26.7997 22.6382 26.7997 21.1C26.7997 19.5617 26.1886 18.0865 25.1009 16.9988C24.0132 15.9111 22.538 15.3 20.9997 15.3C19.4615 15.3 17.9862 15.9111 16.8985 16.9988C15.8108 18.0865 15.1997 19.5617 15.1997 21.1C15.1997 22.6382 15.8108 24.1135 16.8985 25.2012C17.9862 26.2889 19.4615 26.9 20.9997 26.9Z" fill="#47A8BD"/>
</svg>
